<?xml version="1.0" encoding="iso-8859-1"?>
<!-- Uploaded to: SVG Repo, www.svgrepo.com, Generator: SVG Repo Mixer Tools -->
<svg fill="#000000" height="800px" width="800px" version="1.1" id="Layer_1" xmlns="http://www.w3.org/2000/svg" xmlns:xlink="http://www.w3.org/1999/xlink" 
	 viewBox="0 0 512 512" xml:space="preserve">
<g>
	<g>
		<path d="M318.638,0c-106.62,0-193.362,86.742-193.362,193.362c0,38.559,11.351,74.515,30.878,104.711L2.393,451.835
			c-3.191,3.192-3.191,8.364,0,11.555l46.217,46.218c1.532,1.532,3.61,2.392,5.777,2.392c2.167,0,4.245-0.861,5.777-2.392
			L193.46,376.312c0.011-0.011,20.467-20.467,20.467-20.467c30.197,19.527,66.153,30.878,104.712,30.878
			c106.62,0,193.362-86.742,193.362-193.362S425.258,0,318.638,0z M54.387,492.276l-34.664-34.663l98.637-98.636l34.664,34.664
			L54.387,492.276z M164.579,382.084l-34.663-34.664l11.554-11.554l34.664,34.663L164.579,382.084z M187.688,358.975l-34.663-34.664
			l12.719-12.719c10.047,12.962,21.701,24.616,34.664,34.663L187.688,358.975z M318.638,370.383
			c-97.61,0-177.021-79.411-177.021-177.021S221.028,16.34,318.638,16.34s177.021,79.412,177.021,177.021
			S416.248,370.383,318.638,370.383z"/>
	</g>
</g>
<g>
	<g>
		<path d="M384,174.285H253.276c-4.512,0-8.17,3.657-8.17,8.17s3.658,8.17,8.17,8.17H384c4.513,0,8.17-3.657,8.17-8.17
			S388.513,174.285,384,174.285z"/>
	</g>
</g>
<g>
	<g>
		<path d="M384,206.966H253.276c-4.512,0-8.17,3.657-8.17,8.17s3.658,8.17,8.17,8.17H384c4.513,0,8.17-3.657,8.17-8.17
			S388.513,206.966,384,206.966z"/>
	</g>
</g>
<g>
	<g>
		<path d="M384,239.647H253.276c-4.512,0-8.17,3.657-8.17,8.17c0,4.513,3.658,8.17,8.17,8.17H384c4.513,0,8.17-3.657,8.17-8.17
			C392.17,243.304,388.513,239.647,384,239.647z"/>
	</g>
</g>
<g>
	<g>
		<path d="M384,141.604H253.276c-4.512,0-8.17,3.657-8.17,8.17s3.658,8.17,8.17,8.17H384c4.513,0,8.17-3.657,8.17-8.17
			S388.513,141.604,384,141.604z"/>
	</g>
</g>
<g>
	<g>
		<path d="M318.638,38.128c-85.597,0-155.234,69.637-155.234,155.234s69.637,155.234,155.234,155.234
			c35.617,0,69.121-11.742,96.891-33.958c3.524-2.818,4.096-7.96,1.277-11.483c-2.818-3.524-7.961-4.097-11.483-1.277
			c-24.842,19.872-54.818,30.377-86.685,30.377c-76.586,0-138.894-62.307-138.894-138.894S242.052,54.468,318.638,54.468
			s138.894,62.307,138.894,138.894c0,31.867-10.505,61.843-30.377,86.685c-2.819,3.523-2.247,8.665,1.277,11.483
			c3.521,2.818,8.663,2.248,11.483-1.277c22.215-27.77,33.958-61.274,33.958-96.891C473.872,107.765,404.235,38.128,318.638,38.128z
			"/>
	</g>
</g>
</svg>