<?xml version="1.0" encoding="iso-8859-1"?>
<!-- Uploaded to: SVG Repo, www.svgrepo.com, Generator: SVG Repo Mixer Tools -->
<svg fill="#000000" height="800px" width="800px" version="1.1" id="Layer_1" xmlns="http://www.w3.org/2000/svg" xmlns:xlink="http://www.w3.org/1999/xlink" 
	 viewBox="0 0 512 512" xml:space="preserve">
<g>
	<g>
		<circle cx="415.921" cy="40.707" r="39.102"/>
	</g>
</g>
<g>
	<g>
		<path d="M437.825,84.712c-0.969-0.552-2.159-0.54-3.117,0.03L415.924,95.92l-18.784-11.178c-0.958-0.57-2.148-0.582-3.117-0.031
			s-1.568,1.58-1.568,2.695v26.339c0,1.115,0.599,2.143,1.568,2.695s2.159,0.539,3.117-0.031l18.784-11.178l18.784,11.178
			c0.958,0.57,2.148,0.582,3.117,0.031s1.568-1.58,1.568-2.695V87.406C439.393,86.292,438.794,85.263,437.825,84.712z"/>
	</g>
</g>
<g>
	<g>
		<path d="M393.649,369.822h-27.896v88.791c0,12.503,10.136,22.639,22.639,22.639c12.503,0,22.639-10.136,22.639-22.639v-93.341
			C405.893,368.165,399.966,369.822,393.649,369.822z"/>
	</g>
</g>
<g>
	<g>
		<path d="M467.355,96.859h-11.653l-39.78,86.358l-39.78-86.358H364.49c-24.495,0-44.522,19.928-44.644,44.517v136.28
			c0,10.419,8.447,18.865,18.865,18.865c10.418,0,18.865-8.446,18.865-18.865V141.47c0.048-2.356,1.982-4.232,4.337-4.208
			c2.355,0.024,3.839,1.94,3.839,4.296v157.279h27.896c6.317,0,12.243,1.658,17.382,4.55v-25.731h9.776v33.832
			c5.198,6.174,8.335,14.14,8.335,22.842c0,8.703-3.137,16.669-8.335,22.842v101.442c0,12.503,10.136,22.639,22.639,22.639
			c12.503,0,22.639-10.136,22.639-22.639l0.008-317.164c0-2.241,1.803-4.064,4.045-4.088c2.24-0.024,4.085,1.759,4.132,3.999
			c0,0.006,0,0.011,0,0.016v136.28c0,10.419,8.447,18.865,18.865,18.865c10.418,0,18.865-8.446,18.865-18.865V141.282
			C511.878,116.787,491.851,96.859,467.355,96.859z"/>
	</g>
</g>
<g>
	<g>
		<circle cx="119.762" cy="168.265" r="39.964"/>
	</g>
</g>
<g>
	<g>
		<path d="M393.649,319.342H220.921c-8.277,0-14.987,6.71-14.987,14.987c0,2.947,0.862,5.686,2.331,8.004
			c-1.139-0.069,4.469-0.06-69.431,0.158c-7.365,0.022-14.253-3.769-18.164-10.009c-6.178-9.858-18.032-29.394-40.752-68.102
			c-0.068-0.114-0.182-0.349-0.182-0.349l55.822,58.428c5.285,5.531,13.471,7.14,20.447,4.037l72.273-32.126
			c9.138-4.061,13.253-14.762,9.19-23.9c-4.061-9.137-14.76-13.248-23.9-9.19l-60.629,26.951l-44.109-46.172l41.013,25.845
			l0.302-10.667c0.478-16.837-12.875-30.843-29.709-31.175l-27.887-0.551c-16.856-0.333-30.753,13.164-30.918,30.016l-1.016,102.833
			c-0.1,10.127,4.884,19.909,13.776,25.7H55.537L29.698,252.601c-1.598-8.124-9.477-13.408-17.598-11.816
			c-8.123,1.598-13.412,9.475-11.816,17.598l28.218,143.555c0.702,3.573,2.645,6.636,5.323,8.787v89.678
			c0,5.518,4.474,9.992,9.992,9.992c5.518,0,9.992-4.474,9.992-9.992v-36.591h89.461l0.406,1.051l-6.253,15.802
			c-4.416,11.158,1.05,23.782,12.207,28.198c11.182,4.424,23.791-1.071,28.199-12.207l49.321-124.641
			c2.999-7.577,1.565-16.409-4.218-22.698h69.363v131.101h-20.503c-8.277,0-14.987,6.71-14.987,14.987
			c0,8.277,6.71,14.987,14.987,14.987h70.985c8.277,0.001,14.989-6.709,14.989-14.986s-6.71-14.987-14.987-14.987h-20.505V349.317
			h71.377c8.277,0,14.987-6.71,14.987-14.987C408.637,326.053,401.926,319.342,393.649,319.342z M53.809,443.829v-29.794h70.265
			l11.489,29.794H53.809z M154.522,437.453l-9.032-23.419h2.633c8.277,0,14.987-6.71,14.987-14.987c0-5.67-3.15-10.603-7.794-13.148
			l19.628-0.058L154.522,437.453z"/>
	</g>
</g>
<g>
	<g>
		<path d="M224.391,140.811v-11.796c5.253,0.404,6.786,2.989,9.453,2.989c3.555,0,5.009-4.444,5.009-6.625
			c0-5.575-9.453-6.868-14.462-7.028v-2.02c0-1.131-1.536-2.181-3.07-2.181c-1.778,0-3.07,1.05-3.07,2.181v2.262
			c-8.564,1.212-16.159,6.139-16.159,16.401c0,10.342,8.726,13.815,16.159,16.643v13.088c-5.98-1.05-8.727-5.817-12.119-5.817
			c-3.071,0-5.494,4.04-5.494,6.786c0,5.17,7.917,10.179,17.613,10.503v2.019c0,1.132,1.292,2.182,3.07,2.182
			c1.534,0,3.07-1.05,3.07-2.182v-2.342c9.453-1.535,15.915-7.594,15.915-17.613C240.306,147.355,231.742,143.558,224.391,140.811z
			 M219.056,138.872c-3.069-1.293-5.17-2.747-5.17-5.09c0-1.939,1.536-3.797,5.17-4.524V138.872z M223.582,164.645v-10.826
			c2.908,1.373,4.928,3.071,4.928,5.737C228.51,162.463,226.329,163.999,223.582,164.645z"/>
	</g>
</g>
</svg>